<svg width="444" height="174" viewBox="0 0 444 174" fill="none" xmlns="http://www.w3.org/2000/svg">
<g filter="url(#filter0_d_923_49)">
<path d="M404.657 123.742H49.2178C41.3979 123.742 35 117.344 35 109.524V24.2178C35 16.3979 41.3979 10 49.2178 10H404.657C412.477 10 418.875 16.3979 418.875 24.2178V109.524C418.875 117.344 412.477 123.742 404.657 123.742Z" fill="#111111"/>
</g>
<g filter="url(#filter1_d_923_49)">
<path d="M404.657 10H49.2178C41.3979 10 35 16.3979 35 24.2178V109.524C35 117.344 41.3979 123.742 49.2178 123.742H404.657C412.477 123.742 418.875 117.344 418.875 109.524V24.2178C418.875 16.3979 412.477 10 404.657 10ZM404.657 12.2737C411.242 12.2737 416.6 17.6321 416.6 24.2178V109.524C416.6 116.11 411.243 121.468 404.657 121.468H49.2178C42.6321 121.468 37.276 116.11 37.276 109.524V24.2178C37.276 17.6321 42.6321 12.2737 49.2178 12.2737H404.657Z" fill="#111111"/>
</g>
<path d="M339.08 95.3079H344.386V59.7576H339.08V95.3079ZM386.873 72.5646L380.79 87.9765H380.608L374.296 72.5646H368.58L378.049 94.1051L372.649 106.088H378.183L392.773 72.5657L386.873 72.5646ZM356.78 91.2698C355.045 91.2698 352.62 90.4 352.62 88.2508C352.62 85.507 355.64 84.4552 358.244 84.4552C360.576 84.4552 361.677 84.9573 363.093 85.6438C362.68 88.9371 359.845 91.2698 356.78 91.2698ZM357.423 71.787C353.581 71.787 349.603 73.4798 347.956 77.2299L352.665 79.196C353.672 77.2299 355.546 76.5902 357.514 76.5902C360.258 76.5902 363.047 78.2352 363.093 81.1632V81.5286C362.131 80.9798 360.073 80.1568 357.559 80.1568C352.48 80.1568 347.314 82.9458 347.314 88.1597C347.314 92.9161 351.477 95.9806 356.14 95.9806C359.706 95.9806 361.676 94.3799 362.908 92.504H363.093V95.2497H368.217V81.6195C368.217 75.3081 363.502 71.787 357.423 71.787ZM324.63 76.8921H317.083V64.7072H324.63C328.597 64.7072 330.849 67.9908 330.849 70.7996C330.849 73.5544 328.596 76.8921 324.63 76.8921ZM324.493 59.7585H311.779V95.3088H317.083V81.8409H324.494C330.374 81.8409 336.155 77.5844 336.155 70.8008C336.155 64.0186 330.374 59.7585 324.493 59.7585ZM255.165 91.2758C251.499 91.2758 248.431 88.2055 248.431 83.9926C248.431 79.7305 251.499 76.617 255.165 76.617C258.784 76.617 261.624 79.7308 261.624 83.9926C261.624 88.2055 258.784 91.2758 255.165 91.2758ZM261.258 74.5546H261.074C259.884 73.1348 257.592 71.8521 254.707 71.8521C248.659 71.8521 243.116 77.167 243.116 83.9926C243.116 90.7716 248.659 96.0399 254.707 96.0399C257.592 96.0399 259.883 94.7568 261.074 93.2919H261.258V95.0313C261.258 99.6599 258.784 102.132 254.798 102.132C251.547 102.132 249.531 99.7964 248.706 97.8268L244.08 99.7507C245.407 102.956 248.934 106.897 254.799 106.897C261.03 106.897 266.298 103.232 266.298 94.298V72.5847H261.258L261.258 74.5546ZM269.964 95.3069H275.275V59.7566H269.964V95.3069ZM283.11 83.5795C282.973 78.9065 286.731 76.5248 289.432 76.5248C291.54 76.5248 293.325 77.5789 293.923 79.0897L283.11 83.5795ZM299.601 79.5473C298.594 76.846 295.525 71.8521 289.249 71.8521C283.018 71.8521 277.841 76.7537 277.841 83.9461C277.841 90.7262 282.973 96.0401 289.843 96.0401C295.386 96.0401 298.594 92.6512 299.923 90.6806L295.8 87.9315C294.425 89.9476 292.548 91.276 289.843 91.276C287.142 91.276 285.217 90.0388 283.982 87.6107L300.151 80.9227L299.601 79.5473ZM170.766 75.563V80.6937H183.043C182.676 83.5797 181.714 85.6866 180.248 87.1528C178.461 88.9389 175.666 90.9094 170.766 90.9094C163.207 90.9094 157.298 84.8169 157.298 77.2581C157.298 69.6993 163.207 63.6059 170.766 63.6059C174.843 63.6059 177.82 65.2097 180.019 67.2712L183.639 63.6513C180.569 60.7199 176.492 58.4752 170.766 58.4752C160.411 58.4752 151.707 66.9046 151.707 77.2581C151.707 87.6105 160.411 96.0401 170.766 96.0401C176.354 96.0401 180.569 94.2074 183.867 90.7718C187.257 87.3817 188.311 82.6176 188.311 78.7689C188.311 77.5792 188.219 76.4796 188.036 75.563H170.766ZM202.27 91.2758C198.605 91.2758 195.444 88.2522 195.444 83.9461C195.444 79.594 198.605 76.6172 202.27 76.6172C205.935 76.6172 209.096 79.594 209.096 83.9461C209.096 88.2522 205.935 91.2758 202.27 91.2758ZM202.27 71.8521C195.58 71.8521 190.129 76.9369 190.129 83.9461C190.129 90.9094 195.58 96.0401 202.27 96.0401C208.958 96.0401 214.41 90.9094 214.41 83.9461C214.41 76.9369 208.958 71.8521 202.27 71.8521ZM228.752 91.2758C225.089 91.2758 221.927 88.2522 221.927 83.9461C221.927 79.594 225.089 76.6172 228.752 76.6172C232.418 76.6172 235.578 79.594 235.578 83.9461C235.578 88.2522 232.418 91.2758 228.752 91.2758ZM228.752 71.8521C222.065 71.8521 216.614 76.9369 216.614 83.9461C216.614 90.9094 222.065 96.0401 228.752 96.0401C235.443 96.0401 240.893 90.9094 240.893 83.9461C240.893 76.9369 235.443 71.8521 228.752 71.8521Z" fill="#C0C0C0"/>
<path d="M93.9046 65.2334L63.6328 97.365C63.634 97.3716 63.6362 97.3771 63.6373 97.3839C64.5657 100.873 67.7526 103.442 71.5348 103.442C73.0467 103.442 74.4662 103.033 75.6835 102.316L75.7802 102.259L109.857 82.5955L93.9046 65.2334Z" fill="#EB3131"/>
<path d="M124.529 59.7616L124.5 59.7418L109.788 51.213L93.2129 65.962L109.845 82.5924L124.48 74.1485C127.045 72.7634 128.787 70.0586 128.787 66.9395C128.787 63.8428 127.069 61.1513 124.529 59.7616Z" fill="#F6B60B"/>
<path d="M63.6272 36.386C63.4453 37.0571 63.3496 37.76 63.3496 38.4899V95.2693C63.3496 95.9979 63.4441 96.7032 63.6284 97.3719L94.9452 66.0614L63.6272 36.386Z" fill="#5778C5"/>
<path d="M94.123 66.8826L109.793 51.2176L75.7545 31.4827C74.5173 30.7416 73.0732 30.314 71.5281 30.314C67.7459 30.314 64.5547 32.8877 63.6261 36.3809C63.625 36.3843 63.625 36.3867 63.625 36.3897L94.123 66.8826Z" fill="#3BAD49"/>
<path d="M169.766 37.8104H161.471V39.8632H167.687C167.518 41.5383 166.851 42.8535 165.727 43.8087C164.603 44.7642 163.168 45.2439 161.471 45.2439C159.609 45.2439 158.032 44.5952 156.739 43.3069C155.473 41.9917 154.829 40.3654 154.829 38.4061C154.829 36.4469 155.473 34.8205 156.739 33.5055C158.032 32.2171 159.609 31.5728 161.471 31.5728C162.426 31.5728 163.337 31.7371 164.172 32.0971C165.007 32.4568 165.678 32.959 166.203 33.6033L167.78 32.026C167.065 31.2128 166.158 30.5909 165.034 30.1376C163.91 29.6844 162.737 29.4668 161.471 29.4668C158.987 29.4668 156.881 30.3287 155.162 32.0483C153.442 33.772 152.58 35.8959 152.58 38.4061C152.58 40.9163 153.442 43.0448 155.162 44.7644C156.881 46.4836 158.987 47.3458 161.471 47.3458C164.079 47.3458 166.158 46.5104 167.758 44.813C169.166 43.4004 169.886 41.4898 169.886 39.0995C169.886 38.6951 169.837 38.2637 169.766 37.8104ZM172.98 29.8486V46.9634H182.972V44.8618H175.179V39.4325H182.208V37.3797H175.179V31.9547H182.972V29.8485L172.98 29.8486ZM196.983 31.9548V29.8486H185.222V31.9548H190.003V46.9634H192.203V31.9548H196.983ZM207.631 29.8486H205.432V46.9634H207.631V29.8486ZM222.147 31.9548V29.8486H210.387V31.9548H215.167V46.9634H217.367V31.9548H222.147ZM244.341 32.0748C242.643 30.3286 240.564 29.4667 238.08 29.4667C235.592 29.4667 233.513 30.3286 231.815 32.0481C230.118 33.7454 229.283 35.8736 229.283 38.406C229.283 40.9384 230.118 43.0668 231.815 44.7642C233.513 46.4834 235.592 47.3457 238.08 47.3457C240.542 47.3457 242.643 46.4835 244.341 44.7642C246.038 43.0669 246.873 40.9386 246.873 38.406C246.873 35.8958 246.038 33.7718 244.341 32.0748ZM233.393 33.5054C234.659 32.2169 236.214 31.5726 238.08 31.5726C239.942 31.5726 241.497 32.217 242.741 33.5054C244.007 34.7716 244.629 36.4242 244.629 38.4059C244.629 40.3921 244.007 42.0403 242.741 43.3067C241.497 44.5951 239.942 45.2437 238.08 45.2437C236.214 45.2437 234.659 44.5951 233.393 43.3067C232.153 42.0137 231.531 40.3921 231.531 38.4059C231.531 36.4242 232.153 34.7982 233.393 33.5054ZM252.098 36.3046L252.005 33.0031H252.098L260.798 46.9632H263.095V29.8484H260.895V39.863L260.989 43.1644H260.895L252.578 29.8484H249.899V46.9632H252.098V36.3046Z" fill="#C0C0C0" stroke="#C0C0C0" stroke-width="0.26666" stroke-miterlimit="10"/>
<defs>
<filter id="filter0_d_923_49" x="0" y="0" width="443.875" height="173.742" filterUnits="userSpaceOnUse" color-interpolation-filters="sRGB">
<feFlood flood-opacity="0" result="BackgroundImageFix"/>
<feColorMatrix in="SourceAlpha" type="matrix" values="0 0 0 0 0 0 0 0 0 0 0 0 0 0 0 0 0 0 127 0" result="hardAlpha"/>
<feOffset dx="-5" dy="20"/>
<feGaussianBlur stdDeviation="15"/>
<feComposite in2="hardAlpha" operator="out"/>
<feColorMatrix type="matrix" values="0 0 0 0 0.0666667 0 0 0 0 0.0666667 0 0 0 0 0.0666667 0 0 0 0.2 0"/>
<feBlend mode="normal" in2="BackgroundImageFix" result="effect1_dropShadow_923_49"/>
<feBlend mode="normal" in="SourceGraphic" in2="effect1_dropShadow_923_49" result="shape"/>
</filter>
<filter id="filter1_d_923_49" x="0" y="0" width="443.875" height="173.742" filterUnits="userSpaceOnUse" color-interpolation-filters="sRGB">
<feFlood flood-opacity="0" result="BackgroundImageFix"/>
<feColorMatrix in="SourceAlpha" type="matrix" values="0 0 0 0 0 0 0 0 0 0 0 0 0 0 0 0 0 0 127 0" result="hardAlpha"/>
<feOffset dx="-5" dy="20"/>
<feGaussianBlur stdDeviation="15"/>
<feComposite in2="hardAlpha" operator="out"/>
<feColorMatrix type="matrix" values="0 0 0 0 0.0666667 0 0 0 0 0.0666667 0 0 0 0 0.0666667 0 0 0 0.2 0"/>
<feBlend mode="normal" in2="BackgroundImageFix" result="effect1_dropShadow_923_49"/>
<feBlend mode="normal" in="SourceGraphic" in2="effect1_dropShadow_923_49" result="shape"/>
</filter>
</defs>
</svg>
